<svg width="120" height="37" viewBox="0 0 120 37" fill="none" xmlns="http://www.w3.org/2000/svg">
<g clip-path="url(#clip0_266_1688)">
<path fill-rule="evenodd" clip-rule="evenodd" d="M74.3937 28.2087C67.4298 33.3356 57.336 36.071 48.6454 36.071C36.4598 36.071 25.4896 31.5693 17.1903 24.0821C16.5382 23.4933 17.1225 22.691 17.9049 23.1495C26.8615 28.3546 37.936 31.486 49.3757 31.486C57.0908 31.486 65.5779 29.8916 73.3817 26.5831C74.5606 26.0829 75.5465 27.3542 74.3937 28.2087Z" fill="#A0A0A0"/>
<path fill-rule="evenodd" clip-rule="evenodd" d="M77.2889 24.9001C76.4021 23.7643 71.4047 24.3634 69.1617 24.6292C68.4783 24.7125 68.374 24.1186 68.9895 23.6913C72.9697 20.8934 79.5006 21.701 80.2622 22.6388C81.0238 23.5819 80.064 30.1208 76.3238 33.2418C75.75 33.7212 75.2023 33.4659 75.4579 32.8302C76.2977 30.7357 78.1809 26.0412 77.2889 24.9001Z" fill="#A0A0A0"/>
<path fill-rule="evenodd" clip-rule="evenodd" d="M69.3178 3.93903V1.21925C69.3178 0.80764 69.6308 0.531494 70.0064 0.531494H82.1972C82.5884 0.531494 82.9014 0.812851 82.9014 1.21925V3.54826C82.8962 3.93903 82.5676 4.44964 81.9833 5.25724L75.6662 14.2659C78.0136 14.2086 80.4914 14.5576 82.6197 15.756C83.0996 16.0269 83.23 16.4229 83.2666 16.8137V19.7158C83.2666 20.1118 82.8284 20.5755 82.3693 20.3359C78.6187 18.3716 73.637 18.158 69.4899 20.3567C69.0674 20.586 68.624 20.1275 68.624 19.7315V16.9752C68.624 16.5324 68.6292 15.7769 69.0726 15.1047L76.3913 4.62159H70.022C69.6308 4.62159 69.3178 4.34544 69.3178 3.93903Z" fill="#A0A0A0"/>
<path fill-rule="evenodd" clip-rule="evenodd" d="M24.8479 20.909H21.1391C20.7843 20.883 20.5026 20.6173 20.4766 20.2786V1.26618C20.4766 0.885829 20.7948 0.583629 21.1912 0.583629H24.6497C25.0096 0.599249 25.2965 0.875405 25.3226 1.21929V3.70461H25.3904C26.2929 1.30265 27.9882 0.182434 30.273 0.182434C32.5943 0.182434 34.0445 1.30265 35.0878 3.70461C35.985 1.30265 38.0246 0.182434 40.2103 0.182434C41.7648 0.182434 43.4654 0.823302 44.5035 2.26135C45.6772 3.86091 45.4372 6.18471 45.4372 8.22194L45.432 20.2213C45.432 20.6016 45.1138 20.909 44.7173 20.909H41.0137C40.6433 20.883 40.346 20.586 40.346 20.2213V10.1445C40.346 9.34216 40.419 7.3414 40.2416 6.58069C39.9652 5.30417 39.1358 4.94465 38.0612 4.94465C37.1639 4.94465 36.225 5.54384 35.8442 6.50254C35.4634 7.46124 35.4999 9.06601 35.4999 10.1445V20.2213C35.4999 20.6016 35.1817 20.909 34.7852 20.909H31.0816C30.706 20.883 30.4139 20.586 30.4139 20.2213L30.4087 10.1445C30.4087 8.02395 30.7582 4.90297 28.1239 4.90297C25.4583 4.90297 25.5626 7.94579 25.5626 10.1445V20.2213C25.5626 20.6016 25.2444 20.909 24.8479 20.909Z" fill="#A0A0A0"/>
<path fill-rule="evenodd" clip-rule="evenodd" d="M93.3971 0.182434C98.9004 0.182434 101.879 4.90297 101.879 10.9052C101.879 16.7043 98.5874 21.305 93.3971 21.305C87.9928 21.305 85.0508 16.5845 85.0508 10.702C85.0508 4.78313 88.0294 0.182434 93.3971 0.182434ZM93.4284 4.06412C90.695 4.06412 90.5228 7.78427 90.5228 10.1029C90.5228 12.4267 90.4863 17.3869 93.3971 17.3869C96.2713 17.3869 96.407 13.3854 96.407 10.9469C96.407 9.34216 96.3391 7.42476 95.854 5.90335C95.4367 4.57994 94.6073 4.06412 93.4284 4.06412Z" fill="#A0A0A0"/>
<path fill-rule="evenodd" clip-rule="evenodd" d="M109.016 20.909H105.322C104.952 20.883 104.655 20.586 104.655 20.2213L104.649 1.20365C104.681 0.854564 104.988 0.583629 105.364 0.583629H108.802C109.125 0.599249 109.391 0.818093 109.464 1.11508V4.02243H109.532C110.57 1.42249 112.025 0.182434 114.587 0.182434C116.251 0.182434 117.873 0.781621 118.916 2.42287C119.887 3.94428 119.887 6.50254 119.887 8.34177V20.3099C119.845 20.6433 119.537 20.909 119.172 20.909H115.453C115.114 20.883 114.832 20.6329 114.795 20.3099V9.98302C114.795 7.90411 115.035 4.86129 112.474 4.86129C111.572 4.86129 110.742 5.46569 110.33 6.3827C109.808 7.5446 109.741 8.70129 109.741 9.98302V20.2213C109.735 20.6016 109.412 20.909 109.016 20.909Z" fill="#A0A0A0"/>
<path fill-rule="evenodd" clip-rule="evenodd" d="M59.6003 11.8275C59.6003 13.2708 59.6368 14.4744 58.9065 15.7561C58.3171 16.7982 57.3781 17.439 56.34 17.439C54.916 17.439 54.0813 16.3553 54.0813 14.7557C54.0813 11.5983 56.9138 11.0251 59.6003 11.0251V11.8275ZM63.3405 20.857C63.0953 21.0758 62.7406 21.0914 62.4641 20.9456C61.2331 19.9243 61.0087 19.4502 60.3358 18.4759C58.3014 20.5496 56.8565 21.1696 54.2222 21.1696C51.0975 21.1696 48.6719 19.247 48.6719 15.3966C48.6719 12.3902 50.2994 10.3426 52.6259 9.34221C54.6395 8.45645 57.4511 8.30014 59.6003 8.05526V7.57591C59.6003 6.69537 59.6681 5.6533 59.1465 4.8926C58.6979 4.21005 57.8319 3.92869 57.0651 3.92869C55.6515 3.92869 54.3943 4.65293 54.0865 6.15349C54.0239 6.48696 53.7788 6.81521 53.4397 6.83084L49.8456 6.44527C49.543 6.37754 49.204 6.13265 49.2926 5.66894C50.1168 1.31312 54.0605 0.00012207 57.5868 0.00012207C59.3916 0.00012207 61.7495 0.479471 63.1736 1.84457C64.9784 3.5275 64.8063 5.77314 64.8063 8.21678V13.9898C64.8063 15.7248 65.5262 16.4855 66.2043 17.4234C66.4391 17.7568 66.4912 18.158 66.1887 18.4081C65.4323 19.0386 64.0864 20.2109 63.3457 20.8674L63.3405 20.857Z" fill="#A0A0A0"/>
<path fill-rule="evenodd" clip-rule="evenodd" d="M10.9773 11.8275C10.9773 13.2707 11.0138 14.4743 10.2835 15.756C9.69401 16.7981 8.76027 17.439 7.71699 17.439C6.2929 17.439 5.46349 16.3552 5.46349 14.7557C5.46349 11.5982 8.29601 11.0251 10.9773 11.0251V11.8275ZM14.7174 20.8569C14.4723 21.0758 14.1175 21.0914 13.8411 20.9455C12.61 19.9243 12.3909 19.4501 11.7128 18.4758C9.67836 20.5495 8.23863 21.1695 5.59911 21.1695C2.47968 21.1695 0.0488281 19.2469 0.0488281 15.3965C0.0488281 12.3902 1.68157 10.3425 4.00288 9.34214C6.01643 8.45639 8.82809 8.30008 10.9773 8.0552V7.57585C10.9773 6.69531 11.0451 5.65324 10.5286 4.89254C10.0748 4.20999 9.20889 3.92863 8.44729 3.92863C7.03364 3.92863 5.77126 4.65287 5.46349 6.15343C5.40089 6.4869 5.15572 6.81515 4.82187 6.83078L1.22253 6.44521C0.919972 6.37748 0.58612 6.13259 0.669583 5.66888C1.499 1.31306 5.4374 6.10352e-05 8.96372 6.10352e-05C10.7686 6.10352e-05 13.1264 0.47941 14.5505 1.84451C16.3554 3.52744 16.1833 5.77308 16.1833 8.21672V13.9897C16.1833 15.7248 16.9031 16.4855 17.5813 17.4233C17.8212 17.7568 17.8734 18.158 17.5708 18.4081C16.8144 19.0385 15.4686 20.2108 14.7279 20.8673L14.7174 20.8569Z" fill="#A0A0A0"/>
</g>
<defs>
<clipPath id="clip0_266_1688">
<rect width="119.837" height="36.071" fill="white" transform="translate(0.0488281)"/>
</clipPath>
</defs>
</svg>
