<svg width="103" height="34" viewBox="0 0 103 34" fill="none" xmlns="http://www.w3.org/2000/svg">
<g clip-path="url(#clip0_266_1680)">
<path d="M13.2252 12.432V15.8664H21.5133C21.2932 17.7662 20.6331 19.2276 19.6063 20.1776C18.4328 21.3467 16.5258 22.662 13.2252 22.662C8.16432 22.662 4.20364 18.57 4.20364 13.5281C4.20364 8.48614 8.09097 4.39414 13.2252 4.39414C15.939 4.39414 17.9927 5.49021 19.4596 6.87857L21.88 4.46721C19.8263 2.49428 17.0392 0.959778 13.2252 0.959778C6.25732 0.959778 0.389648 6.58628 0.389648 13.5281C0.389648 20.4699 6.25732 26.0964 13.2252 26.0964C16.9658 26.0964 19.8263 24.8541 22.0267 22.5889C24.3004 20.3237 25.0339 17.1086 25.0339 14.5511C25.0339 13.7473 24.9605 13.0166 24.8872 12.432H13.2252Z" fill="#A0A0A0"/>
<path d="M35.3026 9.58221C30.8285 9.58221 27.0879 13.0166 27.0879 17.6931C27.0879 22.3697 30.7552 25.8041 35.3026 25.8041C39.8501 25.8041 43.5174 22.4428 43.5174 17.7662C43.5174 13.0166 39.8501 9.58221 35.3026 9.58221ZM35.3026 22.662C32.8089 22.662 30.6818 20.616 30.6818 17.7662C30.6818 14.8434 32.8089 12.8704 35.3026 12.8704C37.7964 12.8704 39.9234 14.8434 39.9234 17.7662C39.9234 20.616 37.7964 22.662 35.3026 22.662Z" fill="#A0A0A0"/>
<path d="M75.4224 11.409H75.2757C74.4689 10.4591 72.9286 9.58221 70.9483 9.58221C66.8409 9.58221 63.3203 13.0896 63.3203 17.6931C63.3203 22.2236 66.8409 25.8041 70.9483 25.8041C72.9286 25.8041 74.4689 24.9272 75.2757 23.9773H75.4224V25.1464C75.4224 28.2154 73.7354 29.8961 71.095 29.8961C68.8946 29.8961 67.5744 28.3616 66.9876 26.9732L63.9071 28.2885C64.7872 30.4076 67.2076 33.1112 71.1683 33.1112C75.349 33.1112 78.943 30.6268 78.943 24.6349V10.0206H75.5691V11.409H75.4224ZM71.315 22.662C68.8213 22.662 66.9876 20.5429 66.9876 17.7662C66.9876 14.9164 68.8946 12.8704 71.315 12.8704C73.7354 12.8704 75.6424 14.9895 75.6424 17.8393C75.7158 20.616 73.8088 22.662 71.315 22.662Z" fill="#A0A0A0"/>
<path d="M53.5653 9.58221C49.0912 9.58221 45.3506 13.0166 45.3506 17.6931C45.3506 22.3697 49.0179 25.8041 53.5653 25.8041C58.1128 25.8041 61.7801 22.4428 61.7801 17.7662C61.7801 13.0166 58.1128 9.58221 53.5653 9.58221ZM53.5653 22.662C51.0716 22.662 48.9445 20.616 48.9445 17.7662C48.9445 14.8434 51.0716 12.8704 53.5653 12.8704C56.0591 12.8704 58.1861 14.8434 58.1861 17.7662C58.1861 20.616 56.0591 22.662 53.5653 22.662Z" fill="#A0A0A0"/>
<path d="M81.6572 1.3252H85.1778V25.8772H81.6572V1.3252Z" fill="#A0A0A0"/>
<path d="M96.0329 22.662C94.1992 22.662 92.9524 21.8582 92.0722 20.1776L103.001 15.7202L102.634 14.7703C101.974 12.9435 99.8469 9.58221 95.6662 9.58221C91.4854 9.58221 87.9648 12.8704 87.9648 17.6931C87.9648 22.2236 91.4121 25.8041 96.0329 25.8041C99.7735 25.8041 101.901 23.5389 102.854 22.2236L100.067 20.3968C99.1134 21.7851 97.8665 22.662 96.0329 22.662ZM95.8129 12.6512C97.2798 12.6512 98.5267 13.3819 98.8934 14.4049L91.5588 17.4739C91.4854 14.1126 93.9792 12.6512 95.8129 12.6512Z" fill="#A0A0A0"/>
</g>
<defs>
<clipPath id="clip0_266_1680">
<rect width="102.611" height="32.1514" fill="white" transform="translate(0.388672 0.959778)"/>
</clipPath>
</defs>
</svg>
