<svg width="138" height="47" viewBox="0 0 138 47" fill="none" xmlns="http://www.w3.org/2000/svg">
<g clip-path="url(#clip0_333_6847)">
<rect width="26.0292" height="40.903" transform="translate(0.5 7.01074) rotate(-14.337)" fill="#101010"/>
<path d="M11.3535 -5.3584L14.4043 -4.45016L2.73332 34.7524L-0.317428 33.8442L11.3535 -5.3584Z" fill="#818181"/>
<path d="M15.4165 -4.47754L20.478 -2.97068L7.49495 40.6393L2.43344 39.1325L15.4165 -4.47754Z" fill="#818181"/>
<path d="M26.7998 34.8306L32.2038 33.4494L33.5849 38.8534L28.181 40.2345L26.7998 34.8306Z" fill="#FFA200"/>
</g>
<path d="M131.297 33.0727C129.985 33.0727 128.851 32.8 127.897 32.2545C126.948 31.7034 126.218 30.925 125.706 29.9193C125.195 28.9079 124.939 27.7176 124.939 26.3483C124.939 25.0017 125.195 23.8199 125.706 22.8028C126.224 21.7801 126.945 20.9846 127.871 20.4165C128.797 19.8426 129.885 19.5557 131.135 19.5557C131.942 19.5557 132.704 19.6863 133.42 19.9477C134.141 20.2034 134.778 20.6011 135.329 21.1409C135.885 21.6807 136.323 22.3682 136.641 23.2034C136.959 24.0329 137.118 25.0216 137.118 26.1693V27.1153H126.388V25.0358H134.161C134.155 24.4449 134.028 23.9193 133.778 23.4591C133.528 22.9932 133.178 22.6267 132.729 22.3596C132.286 22.0926 131.769 21.9591 131.178 21.9591C130.547 21.9591 129.993 22.1125 129.516 22.4193C129.039 22.7204 128.667 23.1182 128.4 23.6125C128.138 24.1011 128.005 24.6381 127.999 25.2233V27.0386C127.999 27.8 128.138 28.4534 128.417 28.9988C128.695 29.5386 129.084 29.9534 129.584 30.2432C130.084 30.5273 130.67 30.6693 131.34 30.6693C131.789 30.6693 132.195 30.6068 132.559 30.4818C132.922 30.3511 133.238 30.1608 133.505 29.9108C133.772 29.6608 133.974 29.3511 134.11 28.9818L136.991 29.3057C136.809 30.067 136.462 30.7318 135.951 31.3C135.445 31.8625 134.797 32.3 134.008 32.6125C133.218 32.9193 132.314 33.0727 131.297 33.0727Z" fill="#101010"/>
<path d="M119.244 32.8169V19.7259H122.33V32.8169H119.244ZM120.796 17.868C120.307 17.868 119.887 17.7061 119.534 17.3822C119.182 17.0526 119.006 16.6578 119.006 16.1975C119.006 15.7316 119.182 15.3367 119.534 15.0129C119.887 14.6833 120.307 14.5186 120.796 14.5186C121.29 14.5186 121.71 14.6833 122.057 15.0129C122.409 15.3367 122.585 15.7316 122.585 16.1975C122.585 16.6578 122.409 17.0526 122.057 17.3822C121.71 17.7061 121.29 17.868 120.796 17.868Z" fill="#101010"/>
<path d="M108.393 28.7089L108.384 24.9845H108.878L113.583 19.7259H117.188L111.401 26.1691H110.762L108.393 28.7089ZM105.58 32.8169V15.3623H108.665V32.8169H105.58ZM113.796 32.8169L109.535 26.8595L111.614 24.6862L117.486 32.8169H113.796Z" fill="#101010"/>
<path d="M97.149 33.0727C95.8365 33.0727 94.7029 32.8 93.7484 32.2545C92.7995 31.7034 92.0694 30.925 91.5581 29.9193C91.0467 28.9079 90.791 27.7176 90.791 26.3483C90.791 25.0017 91.0467 23.8199 91.5581 22.8028C92.0751 21.7801 92.7967 20.9846 93.7228 20.4165C94.649 19.8426 95.737 19.5557 96.987 19.5557C97.7939 19.5557 98.5552 19.6863 99.2711 19.9477C99.9927 20.2034 100.629 20.6011 101.18 21.1409C101.737 21.6807 102.175 22.3682 102.493 23.2034C102.811 24.0329 102.97 25.0216 102.97 26.1693V27.1153H92.2399V25.0358H100.013C100.007 24.4449 99.8791 23.9193 99.6291 23.4591C99.3791 22.9932 99.0297 22.6267 98.5808 22.3596C98.1376 22.0926 97.6206 21.9591 97.0297 21.9591C96.399 21.9591 95.845 22.1125 95.3677 22.4193C94.8904 22.7204 94.5183 23.1182 94.2512 23.6125C93.9899 24.1011 93.8564 24.6381 93.8507 25.2233V27.0386C93.8507 27.8 93.9899 28.4534 94.2683 28.9988C94.5467 29.5386 94.9359 29.9534 95.4359 30.2432C95.9359 30.5273 96.5211 30.6693 97.1916 30.6693C97.6404 30.6693 98.0467 30.6068 98.4103 30.4818C98.774 30.3511 99.0893 30.1608 99.3564 29.9108C99.6234 29.6608 99.8251 29.3511 99.9615 28.9818L102.842 29.3057C102.66 30.067 102.314 30.7318 101.802 31.3C101.297 31.8625 100.649 32.3 99.8592 32.6125C99.0694 32.9193 98.166 33.0727 97.149 33.0727Z" fill="#101010"/>
<path d="M88.9142 19.7257V22.1121H81.3887V19.7257H88.9142ZM83.2466 16.5894H86.3319V28.8791C86.3319 29.2939 86.3944 29.6121 86.5194 29.8337C86.65 30.0496 86.8205 30.1973 87.0307 30.2769C87.2409 30.3564 87.4739 30.3962 87.7296 30.3962C87.9228 30.3962 88.0989 30.382 88.258 30.3536C88.4228 30.3252 88.5478 30.2996 88.633 30.2769L89.1529 32.6888C88.9881 32.7456 88.7523 32.8081 88.4455 32.8763C88.1444 32.9445 87.775 32.9842 87.3375 32.9956C86.5648 33.0183 85.8688 32.9019 85.2495 32.6462C84.6301 32.3848 84.1387 31.9814 83.775 31.4359C83.4171 30.8905 83.2409 30.2087 83.2466 29.3905V16.5894Z" fill="#101010"/>
<path d="M70.8372 25.1466V32.817H67.752V19.7261H70.7008V21.9506H70.8542C71.1554 21.2176 71.6355 20.6352 72.2946 20.2034C72.9593 19.7716 73.7804 19.5557 74.7576 19.5557C75.661 19.5557 76.448 19.7488 77.1184 20.1352C77.7946 20.5216 78.3173 21.0812 78.6866 21.8142C79.0616 22.5471 79.2463 23.4363 79.2406 24.4818V32.817H76.1554V24.9591C76.1554 24.0841 75.9281 23.3994 75.4735 22.9051C75.0247 22.4108 74.4025 22.1636 73.6071 22.1636C73.0673 22.1636 72.5872 22.2829 72.1667 22.5216C71.752 22.7545 71.4252 23.0926 71.1866 23.5358C70.9537 23.979 70.8372 24.5159 70.8372 25.1466Z" fill="#101010"/>
<path d="M61.4945 32.8169V19.7259H64.5797V32.8169H61.4945ZM63.0456 17.868C62.557 17.868 62.1365 17.7061 61.7843 17.3822C61.432 17.0526 61.2559 16.6578 61.2559 16.1975C61.2559 15.7316 61.432 15.3367 61.7843 15.0129C62.1365 14.6833 62.557 14.5186 63.0456 14.5186C63.54 14.5186 63.9604 14.6833 64.307 15.0129C64.6593 15.3367 64.8354 15.7316 64.8354 16.1975C64.8354 16.6578 64.6593 17.0526 64.307 17.3822C63.9604 17.7061 63.54 17.868 63.0456 17.868Z" fill="#101010"/>
<path d="M47.5684 32.8169V15.3623H58.7502V18.0129H50.7303V22.7515H57.9831V25.4021H50.7303V32.8169H47.5684Z" fill="#101010"/>
<defs>
<clipPath id="clip0_333_6847">
<rect width="26.0292" height="40.903" fill="white" transform="translate(0.5 7.01074) rotate(-14.337)"/>
</clipPath>
</defs>
</svg>
