<svg width="197" height="26" viewBox="0 0 197 26" fill="none" xmlns="http://www.w3.org/2000/svg">
<g clip-path="url(#clip0_266_1677)">
<path d="M27.9951 24.8868V14.0064C27.9951 9.89829 25.3689 7.15953 21.142 7.10973C18.916 7.08483 16.615 7.75707 15.0143 10.1971C13.8138 8.27993 11.9129 7.10973 9.26175 7.10973C7.41093 7.10973 5.58512 7.65748 4.15949 9.67421V7.55789H0.382812V24.8868H4.20951V15.2762C4.20951 12.2636 5.88525 10.6701 8.4614 10.6701C10.9625 10.6701 12.2381 12.3134 12.2381 15.2513V24.8868H16.0648V15.2762C16.0648 12.2636 17.8155 10.6701 20.3167 10.6701C22.8928 10.6701 24.1434 12.3134 24.1434 15.2513V24.8868H27.9951ZM84.6202 7.55789H78.4174V2.27954H74.5907V7.55789H71.0642V10.9938H74.5907V18.9113C74.5907 22.9448 76.1664 25.335 80.6434 25.335C82.2941 25.335 84.17 24.837 85.3705 23.9905L84.27 20.7538C83.1445 21.4011 81.894 21.7248 80.9185 21.7248C79.0177 21.7248 78.4174 20.5546 78.4174 18.8117V10.9938H84.6202V7.55789ZM116.909 7.10973C114.734 7.10973 113.308 8.13054 112.307 9.64931V7.55789H108.556V24.8868H112.332V15.1766C112.332 12.3134 113.583 10.7199 116.059 10.7199C116.834 10.7199 117.635 10.8195 118.435 11.1432L119.611 7.58279C118.785 7.25912 117.685 7.10973 116.909 7.10973ZM68.0628 8.92728C66.237 7.73218 63.7359 7.10973 60.9597 7.10973C56.5577 7.10973 53.7065 9.20115 53.7065 12.662C53.7065 15.5003 55.8074 17.2432 59.7091 17.766L61.4849 18.015C63.5608 18.3138 64.5363 18.8366 64.5363 19.8325C64.5363 21.177 63.1607 21.924 60.5595 21.924C57.9333 21.924 56.0325 21.0774 54.7569 20.1064L52.9811 23.0444C55.0571 24.5631 57.6832 25.2852 60.5345 25.2852C65.5617 25.2852 68.488 22.9199 68.488 19.6334C68.488 16.5958 66.187 15.0024 62.4103 14.4546L60.6345 14.2056C58.9838 13.9815 57.6832 13.6579 57.6832 12.5126C57.6832 11.2428 58.9338 10.4709 61.0097 10.4709C63.2357 10.4709 65.3866 11.3175 66.4371 11.9648L68.0628 8.92728ZM169.558 7.10973C167.382 7.10973 165.956 8.13054 164.956 9.64931V7.55789H161.204V24.8868H164.981V15.1766C164.981 12.3134 166.231 10.7199 168.707 10.7199C169.483 10.7199 170.283 10.8195 171.084 11.1432L172.259 7.58279C171.409 7.25912 170.333 7.10973 169.558 7.10973ZM120.736 16.2224C120.736 21.4758 124.413 25.335 130.015 25.335C132.641 25.335 134.392 24.7623 136.293 23.2685L134.467 20.2309C133.042 21.2517 131.541 21.7995 129.915 21.7995C126.889 21.7746 124.663 19.5836 124.663 16.2473C124.663 12.9109 126.889 10.7448 129.915 10.695C131.566 10.695 133.042 11.2428 134.467 12.2636L136.293 9.22605C134.392 7.73218 132.641 7.15953 130.015 7.15953C124.438 7.10973 120.736 10.9689 120.736 16.2224ZM156.227 16.2224V7.55789H152.45V9.64931C151.25 8.08075 149.424 7.10973 146.948 7.10973C142.071 7.10973 138.244 10.9191 138.244 16.2224C138.244 21.5256 142.071 25.335 146.948 25.335C149.424 25.335 151.25 24.364 152.45 22.7954V24.8868H156.227V16.2224ZM142.121 16.2224C142.121 13.1848 144.122 10.6701 147.398 10.6701C150.524 10.6701 152.65 13.0603 152.65 16.2224C152.65 19.3844 150.549 21.7746 147.398 21.7746C144.122 21.7746 142.121 19.2599 142.121 16.2224ZM96.4004 7.10973C91.2981 7.10973 87.7215 10.8195 87.7215 16.2224C87.7215 21.7248 91.4482 25.335 96.6505 25.335C99.2767 25.335 101.678 24.6876 103.779 22.895L101.928 20.1064C100.477 21.2766 98.6014 21.924 96.8756 21.924C94.4245 21.924 92.2235 20.8036 91.6733 17.6913H104.604C104.629 17.2183 104.679 16.7452 104.679 16.2473C104.654 10.8195 101.303 7.10973 96.4004 7.10973ZM96.3504 10.4958C98.8015 10.4958 100.352 12.0146 100.752 14.7036H91.7233C92.1235 12.1889 93.6492 10.4958 96.3504 10.4958ZM191.393 16.2224V0.586487H187.616V9.64931C186.415 8.08075 184.59 7.10973 182.113 7.10973C177.236 7.10973 173.41 10.9191 173.41 16.2224C173.41 21.5256 177.236 25.335 182.113 25.335C184.59 25.335 186.415 24.364 187.616 22.7954V24.8868H191.393V16.2224ZM195.819 23.2934C195.97 23.2934 196.12 23.3182 196.245 23.368C196.37 23.4178 196.495 23.4925 196.595 23.5921C196.695 23.6917 196.77 23.8162 196.845 23.9407C196.895 24.0652 196.945 24.2146 196.945 24.364C196.945 24.5133 196.92 24.6627 196.845 24.7872C196.795 24.9117 196.695 25.0362 196.595 25.1358C196.495 25.2354 196.37 25.3101 196.245 25.3848C196.12 25.4346 195.97 25.4844 195.819 25.4844C195.669 25.4844 195.519 25.4595 195.369 25.3848C195.219 25.335 195.119 25.2354 195.019 25.1358C194.919 25.0362 194.844 24.9117 194.769 24.7872C194.719 24.6627 194.669 24.5133 194.669 24.364C194.669 24.2146 194.694 24.0652 194.769 23.9407C194.819 23.8162 194.919 23.6917 195.019 23.5921C195.119 23.4925 195.244 23.4178 195.369 23.368C195.494 23.3182 195.644 23.2934 195.819 23.2934ZM195.819 25.2354C195.945 25.2354 196.045 25.2105 196.145 25.1607C196.245 25.1109 196.345 25.0611 196.42 24.9864C196.495 24.9117 196.57 24.8121 196.595 24.7125C196.645 24.6129 196.67 24.4884 196.67 24.3889C196.67 24.2644 196.645 24.1648 196.595 24.0652C196.545 23.9656 196.495 23.866 196.42 23.7913C196.345 23.7166 196.245 23.6419 196.145 23.617C196.045 23.5672 195.92 23.5423 195.819 23.5423C195.694 23.5423 195.594 23.5672 195.469 23.617C195.369 23.6668 195.269 23.7166 195.194 23.7913C195.119 23.866 195.044 23.9656 195.019 24.0652C194.969 24.1648 194.944 24.2893 194.944 24.3889C194.944 24.5133 194.969 24.6129 195.019 24.7125C195.069 24.8121 195.119 24.9117 195.194 24.9864C195.269 25.0611 195.369 25.1358 195.469 25.1607C195.569 25.2105 195.694 25.2354 195.819 25.2354ZM195.87 23.866C195.995 23.866 196.095 23.8909 196.17 23.9656C196.245 24.0154 196.27 24.115 196.27 24.2146C196.27 24.2893 196.245 24.364 196.195 24.4138C196.145 24.4635 196.045 24.5133 195.945 24.5133L196.27 24.8868H195.995L195.694 24.5133H195.594V24.8868H195.369V23.866H195.87ZM195.619 24.0652V24.3391H195.87C195.92 24.3391 195.97 24.3391 196.02 24.3142C196.045 24.2893 196.07 24.2644 196.07 24.2146C196.07 24.1648 196.045 24.1399 196.02 24.115C195.995 24.0901 195.945 24.0901 195.87 24.0901H195.619V24.0652ZM177.286 16.2224C177.286 13.1848 179.287 10.6701 182.564 10.6701C185.69 10.6701 187.816 13.0603 187.816 16.2224C187.816 19.3844 185.715 21.7746 182.564 21.7746C179.287 21.7746 177.286 19.2599 177.286 16.2224ZM49.3545 16.2224V7.55789H45.5779V9.64931C44.3773 8.08075 42.5515 7.10973 40.0754 7.10973C35.1983 7.10973 31.3716 10.9191 31.3716 16.2224C31.3716 21.5256 35.1983 25.335 40.0754 25.335C42.5515 25.335 44.3773 24.364 45.5779 22.7954V24.8868H49.3545V16.2224ZM35.2483 16.2224C35.2483 13.1848 37.2492 10.6701 40.5256 10.6701C43.652 10.6701 45.7779 13.0603 45.7779 16.2224C45.7779 19.3844 43.677 21.7746 40.5256 21.7746C37.2492 21.7746 35.2483 19.2599 35.2483 16.2224Z" fill="#A0A0A0"/>
</g>
<defs>
<clipPath id="clip0_266_1677">
<rect width="196.562" height="24.8979" fill="white" transform="translate(0.381836 0.586548)"/>
</clipPath>
</defs>
</svg>
