<svg width="119" height="26" viewBox="0 0 119 26" fill="none" xmlns="http://www.w3.org/2000/svg">
<g clip-path="url(#clip0_266_1703)">
<path d="M42.2319 14.9539L41.5263 16.9507H41.4676C41.35 16.5005 41.1344 15.8153 40.7816 14.9931L36.9991 5.49857H33.2949V20.6311H35.7448V11.2932C35.7448 10.7059 35.7447 10.0403 35.7252 9.21808C35.7056 8.80697 35.6664 8.49375 35.6468 8.25884H35.7056C35.8231 8.84613 35.9603 9.27681 36.0583 9.55088L40.6052 20.5919H42.3299L46.8376 9.45299C46.9356 9.1985 47.0336 8.68952 47.1316 8.25884H47.1904C47.1316 9.37469 47.0924 10.3731 47.0728 10.98V20.5724H49.6794V5.45942H46.1124L42.2319 14.9539ZM52.1488 9.72706H54.6966V20.5724H52.1488V9.72706ZM53.4423 5.1462C53.0111 5.1462 52.6584 5.30281 52.3644 5.57688C52.0704 5.85095 51.9136 6.20332 51.9136 6.634C51.9136 7.0451 52.0704 7.39748 52.3644 7.67155C52.6584 7.94562 53.0111 8.08265 53.4423 8.08265C53.8735 8.08265 54.2459 7.92604 54.5202 7.67155C54.8142 7.39748 54.971 7.0451 54.971 6.634C54.971 6.2229 54.8142 5.87052 54.5202 5.57688C54.2655 5.30281 53.8931 5.1462 53.4423 5.1462ZM63.7316 9.62918C63.2612 9.5313 62.7713 9.47257 62.3009 9.47257C61.1446 9.47257 60.0862 9.72706 59.2043 10.236C58.3224 10.745 57.6168 11.4498 57.1661 12.3307C56.6957 13.2312 56.4605 14.2688 56.4605 15.4629C56.4605 16.5005 56.6957 17.4206 57.1465 18.2624C57.5972 19.0846 58.2244 19.7502 59.0671 20.2004C59.8707 20.6507 60.8114 20.8856 61.8697 20.8856C63.0848 20.8856 64.1236 20.6311 64.9467 20.1613L64.9663 20.1417V17.7925L64.8683 17.8708C64.4959 18.1449 64.0648 18.3798 63.6336 18.5168C63.1828 18.6735 62.7713 18.7518 62.4185 18.7518C61.3994 18.7518 60.5958 18.4581 60.0275 17.8121C59.4395 17.1857 59.1455 16.3243 59.1455 15.2476C59.1455 14.1317 59.4395 13.2508 60.0471 12.6048C60.6546 11.9588 61.4582 11.626 62.4381 11.626C63.2612 11.626 64.104 11.9 64.8683 12.4482L64.9663 12.5265V10.0403L64.9467 10.0207C64.6135 9.88367 64.2412 9.72706 63.7316 9.62918ZM72.1394 9.55088C71.5122 9.55088 70.9243 9.74664 70.4147 10.1577C69.9836 10.5101 69.6896 11.0191 69.4348 11.626H69.4152V9.72706H66.8674V20.5724H69.4152V15.0323C69.4152 14.0926 69.6112 13.3095 70.0424 12.7418C70.4735 12.1545 71.0223 11.8609 71.6886 11.8609C71.9238 11.8609 72.159 11.9196 72.453 11.9588C72.7274 12.0371 72.9234 12.1154 73.0605 12.2133L73.1585 12.2916V9.74664L73.0997 9.72706C72.9234 9.6096 72.5706 9.55088 72.1394 9.55088ZM79.0773 9.49215C77.2938 9.49215 75.8632 10.0207 74.8636 11.0583C73.8445 12.0958 73.3545 13.5249 73.3545 15.3259C73.3545 17.0095 73.8641 18.3798 74.844 19.3782C75.824 20.357 77.1567 20.866 78.8225 20.866C80.5668 20.866 81.9583 20.3374 82.9579 19.2803C83.977 18.2232 84.4669 16.8137 84.4669 15.0714C84.4669 13.3487 83.9966 11.9783 83.0362 10.98C82.1151 9.98156 80.7628 9.49215 79.0773 9.49215ZM81.1156 17.8317C80.6452 18.4385 79.9005 18.7322 78.9793 18.7322C78.0582 18.7322 77.3134 18.4385 76.7843 17.7925C76.2551 17.1857 76.0003 16.3047 76.0003 15.1889C76.0003 14.0339 76.2747 13.1529 76.7843 12.5265C77.3134 11.9 78.0386 11.5868 78.9597 11.5868C79.8613 11.5868 80.5668 11.8805 81.0764 12.4873C81.5859 13.0942 81.8603 13.9751 81.8603 15.1301C81.8211 16.3047 81.6055 17.2248 81.1156 17.8317ZM90.1506 14.2296C89.347 13.8968 88.8374 13.6423 88.6023 13.427C88.4063 13.2312 88.3083 12.9572 88.3083 12.6048C88.3083 12.3111 88.4259 12.0175 88.7198 11.8217C89.0138 11.626 89.347 11.5281 89.837 11.5281C90.2681 11.5281 90.7189 11.6064 91.1501 11.7239C91.5812 11.8413 91.9732 12.0175 92.2868 12.2524L92.3848 12.3307V9.9424L92.326 9.92283C92.032 9.80537 91.64 9.68791 91.1697 9.59003C90.6993 9.51172 90.2681 9.47257 89.9154 9.47257C88.7003 9.47257 87.7007 9.76622 86.9168 10.4122C86.1328 11.0191 85.7605 11.8413 85.7605 12.8006C85.7605 13.3095 85.8389 13.7598 86.0152 14.1317C86.1916 14.5037 86.4464 14.8561 86.7992 15.1497C87.152 15.4238 87.6615 15.737 88.3671 16.0306C88.955 16.2851 89.4058 16.4809 89.6802 16.6375C89.9546 16.7941 90.131 16.9703 90.2681 17.1073C90.3661 17.264 90.4249 17.4597 90.4249 17.7142C90.4249 18.4385 89.8762 18.7909 88.759 18.7909C88.3279 18.7909 87.8771 18.7126 87.3479 18.5364C86.8188 18.3602 86.3288 18.1057 85.9172 17.8121L85.8193 17.7338V20.22L85.878 20.2396C86.2504 20.4158 86.7012 20.5332 87.25 20.6702C87.7987 20.7681 88.2887 20.8464 88.7198 20.8464C90.033 20.8464 91.1109 20.5528 91.8752 19.9068C92.6592 19.2803 93.0707 18.4777 93.0707 17.4401C93.0707 16.7158 92.8748 16.0698 92.4436 15.5804C91.8752 15.1106 91.1697 14.6212 90.1506 14.2296ZM99.7931 9.49215C98.0096 9.49215 96.5789 10.0207 95.5794 11.0583C94.5798 12.0958 94.0703 13.5249 94.0703 15.3259C94.0703 17.0095 94.5798 18.3798 95.5598 19.3782C96.5397 20.357 97.8724 20.866 99.5383 20.866C101.283 20.866 102.674 20.3374 103.674 19.2803C104.693 18.2232 105.183 16.8137 105.183 15.0714C105.183 13.3487 104.712 11.9783 103.752 10.98C102.831 9.98156 101.479 9.49215 99.7931 9.49215ZM101.812 17.8317C101.341 18.4385 100.597 18.7322 99.6755 18.7322C98.7347 18.7322 98.0096 18.4385 97.4804 17.7925C96.9513 17.1857 96.6965 16.3047 96.6965 15.1889C96.6965 14.0339 96.9709 13.1529 97.4804 12.5265C98.0096 11.9 98.7348 11.5868 99.6559 11.5868C100.538 11.5868 101.263 11.8805 101.773 12.4873C102.282 13.0942 102.556 13.9751 102.556 15.1301C102.556 16.3047 102.302 17.2248 101.812 17.8317ZM118.804 11.8217V9.72706H116.236V6.51654L116.158 6.53612L113.728 7.26044L113.669 7.28002V9.72706H109.828V8.35672C109.828 7.73028 109.984 7.24087 110.259 6.92764C110.533 6.61442 110.945 6.45781 111.454 6.45781C111.807 6.45781 112.179 6.53612 112.591 6.71231L112.689 6.77103V4.55891L112.63 4.53933C112.277 4.42187 111.807 4.34357 111.199 4.34357C110.435 4.34357 109.769 4.51975 109.161 4.8134C108.554 5.1462 108.103 5.59645 107.77 6.20332C107.437 6.79061 107.26 7.45621 107.26 8.21968V9.72706H105.477V11.8022H107.26V20.5724H109.828V11.8217H113.669V17.401C113.669 19.6914 114.747 20.8464 116.903 20.8464C117.255 20.8464 117.628 20.7877 117.981 20.729C118.353 20.6507 118.627 20.5528 118.784 20.4745L118.804 20.4549V18.3602L118.706 18.4385C118.549 18.5364 118.412 18.6147 118.177 18.6735C117.981 18.7322 117.804 18.7518 117.667 18.7518C117.157 18.7518 116.805 18.6343 116.55 18.3407C116.315 18.0666 116.197 17.6163 116.197 16.9507V11.8217H118.804Z" fill="#A0A0A0"/>
<path d="M0.447266 0.408813H12.4612V12.4091H0.447266V0.408813Z" fill="#A0A0A0"/>
<path d="M13.7158 0.408691H25.7298V12.409H13.7158V0.408691Z" fill="#A0A0A0"/>
<path d="M0.447266 13.6619H12.4612V25.6622H0.447266V13.6619Z" fill="#A0A0A0"/>
<path d="M13.7158 13.6619H25.7298V25.6622H13.7158V13.6619Z" fill="#A0A0A0"/>
</g>
<defs>
<clipPath id="clip0_266_1703">
<rect width="118.376" height="25.2535" fill="white" transform="translate(0.447266 0.408752)"/>
</clipPath>
</defs>
</svg>
