<svg width="125" height="34" viewBox="0 0 125 34" fill="none" xmlns="http://www.w3.org/2000/svg">
<path d="M108.695 8.43123L106.044 25.046C106.034 25.107 106.038 25.1695 106.055 25.229C106.071 25.2885 106.101 25.3435 106.142 25.3904C106.182 25.4372 106.232 25.4747 106.289 25.5002C106.345 25.5256 106.406 25.5384 106.468 25.5377H109.606C109.716 25.5387 109.824 25.5 109.908 25.4288C109.993 25.3576 110.049 25.2585 110.067 25.1495L112.718 8.53471C112.728 8.4737 112.724 8.41126 112.707 8.35177C112.691 8.29228 112.661 8.23718 112.62 8.19033C112.58 8.14349 112.53 8.10602 112.473 8.08057C112.417 8.05512 112.356 8.04229 112.294 8.043H109.156C109.045 8.04081 108.937 8.07899 108.852 8.15043C108.768 8.22187 108.712 8.32168 108.695 8.43123ZM105.345 13.2798H102.368C102.258 13.2787 102.151 13.3173 102.066 13.3884C101.982 13.4595 101.925 13.5585 101.908 13.6674L101.809 14.2791C101.809 14.2791 99.4975 11.7783 95.4041 13.4683C93.0558 14.4359 91.9286 16.4351 91.4489 17.8997C91.4489 17.8997 89.9265 22.3508 93.3697 24.8008C93.3697 24.8008 96.5624 27.1572 100.158 24.6558L100.095 25.046C100.081 25.1377 100.097 25.2315 100.141 25.3132C100.186 25.3948 100.255 25.4598 100.34 25.4982C100.396 25.5246 100.458 25.5377 100.52 25.5377H103.498C103.609 25.5399 103.717 25.5017 103.802 25.4303C103.887 25.3589 103.943 25.2591 103.96 25.1495L105.771 13.7715C105.781 13.7106 105.778 13.6482 105.761 13.5888C105.744 13.5294 105.714 13.4745 105.673 13.4281C105.633 13.3809 105.582 13.343 105.526 13.3173C105.469 13.2915 105.407 13.2792 105.345 13.2798ZM100.965 19.568C100.849 20.3629 100.446 21.0883 99.8318 21.608C99.2151 22.1296 98.4301 22.4112 97.6216 22.4009C97.3046 22.4046 96.9889 22.3588 96.686 22.2651C95.4008 21.8565 94.6674 20.6344 94.8782 19.3096C94.9952 18.515 95.3986 17.7902 96.0127 17.2709C96.6289 16.749 97.4133 16.4665 98.2216 16.4753C98.5387 16.472 98.8544 16.5183 99.1572 16.6124C100.45 17.0184 101.18 18.2424 100.968 19.5686H100.965V19.568ZM85.07 19.8824C86.6842 19.8824 88.2455 19.3102 89.4719 18.2701C90.6957 17.2335 91.506 15.7933 91.7555 14.2112C92.2768 10.9201 89.6807 8.04761 86.0003 8.04761H80.0714C79.9607 8.04655 79.8533 8.08516 79.7688 8.15641C79.6843 8.22767 79.6282 8.32682 79.6108 8.43584L76.9592 25.0506C76.9448 25.1423 76.961 25.2361 77.0051 25.3178C77.0493 25.3995 77.119 25.4644 77.2037 25.5028C77.2605 25.5292 77.3213 25.5423 77.3834 25.5423H80.5227C80.6333 25.5434 80.7407 25.5048 80.8252 25.4335C80.9097 25.3623 80.9658 25.2631 80.9832 25.1541L81.7616 20.2752C81.7779 20.1655 81.8338 20.0656 81.9187 19.994C82.0035 19.9224 82.1117 19.8842 82.2228 19.8863L85.07 19.8824ZM87.6958 14.0616C87.5022 15.2783 86.552 16.1741 84.7343 16.1741H82.4104L83.1161 11.7493H85.3984C87.2775 11.7526 87.8894 12.8501 87.6958 14.0648V14.0616Z" fill="#A0A0A0"/>
<path d="M73.383 13.562L69.7925 19.5634L67.9701 13.6061C67.9416 13.5111 67.8829 13.4278 67.8028 13.369C67.7227 13.3101 67.6256 13.2788 67.5261 13.2799H64.2858C64.2019 13.2787 64.1205 13.3079 64.0565 13.3619C63.9925 13.4159 63.9503 13.4912 63.9375 13.5738C63.9297 13.6286 63.9353 13.6845 63.9541 13.7366L67.2195 23.7713L64.2659 28.4999C64.2409 28.5388 64.224 28.5825 64.2164 28.6281C64.2088 28.6738 64.2107 28.7205 64.2218 28.7654C64.2329 28.8103 64.2531 28.8525 64.2812 28.8894C64.3092 28.9262 64.3445 28.957 64.3849 28.9798C64.4389 29.0107 64.5003 29.0267 64.5626 29.0259H68.0527C68.1523 29.0263 68.2503 29.001 68.3372 28.9525C68.4242 28.904 68.4971 28.8339 68.5489 28.7491L77.67 13.8085C77.703 13.7565 77.7212 13.6964 77.7225 13.6348C77.7237 13.5732 77.7081 13.5125 77.6772 13.4591C77.6464 13.4056 77.6018 13.3613 77.548 13.3308C77.4942 13.3003 77.4332 13.2848 77.3713 13.2858H73.8825C73.7824 13.2849 73.6838 13.3098 73.5963 13.3582C73.5088 13.4066 73.4353 13.4768 73.383 13.562ZM62.4489 13.2799H59.4695C59.3587 13.2788 59.2512 13.3175 59.1665 13.3888C59.0819 13.4602 59.0257 13.5595 59.0083 13.6687L58.9119 14.2798C58.9119 14.2798 56.5979 11.779 52.5046 13.469C50.1569 14.4366 49.029 16.4358 48.5513 17.9004C48.5513 17.9004 47.0276 22.3515 50.4701 24.8015C50.4701 24.8015 53.6635 27.1579 57.2587 24.6565L57.1966 25.0467C57.1819 25.1384 57.198 25.2323 57.2421 25.314C57.2863 25.3958 57.3562 25.4607 57.441 25.4989C57.4972 25.5252 57.5586 25.5384 57.6208 25.5384H60.5994C60.71 25.5392 60.8172 25.5005 60.9017 25.4293C60.9862 25.3581 61.0423 25.2591 61.06 25.1502L62.8724 13.7722C62.8872 13.6804 62.8712 13.5864 62.8271 13.5045C62.7829 13.4227 62.7129 13.3576 62.6279 13.3194C62.5716 13.2935 62.5109 13.28 62.4489 13.2799ZM58.0681 19.5693C57.9508 20.3633 57.5478 21.0875 56.9342 21.6067C56.3178 22.1282 55.5335 22.4105 54.7253 22.4016C54.4087 22.4051 54.0935 22.3593 53.791 22.2658C52.5065 21.8572 51.7738 20.6351 51.9845 19.3096C52.1019 18.5133 52.5068 17.7872 53.123 17.2676C53.7416 16.7458 54.5285 16.4646 55.3385 16.476C55.6557 16.4727 55.9722 16.5188 56.2748 16.6131C57.5547 17.0191 58.2835 18.2425 58.072 19.5693H58.0681ZM42.1737 19.8831C43.7852 19.8822 45.3439 19.3101 46.5717 18.2688C47.7943 17.2323 48.6037 15.7925 48.8526 14.2112C49.3746 10.9208 46.7778 8.0483 43.0987 8.0483H37.1691C37.0585 8.0472 36.9511 8.08569 36.8665 8.1568C36.7819 8.22791 36.7256 8.32692 36.7079 8.43587L34.0649 25.0461C34.0502 25.1378 34.0661 25.2319 34.1103 25.3138C34.1545 25.3956 34.2245 25.4607 34.3094 25.4989C34.3656 25.5246 34.427 25.5384 34.4891 25.5384H37.6264C37.7372 25.5395 37.8447 25.5008 37.9294 25.4294C38.014 25.3581 38.0702 25.2587 38.0876 25.1495L38.8646 20.2706C38.8811 20.1611 38.937 20.0613 39.0219 19.9898C39.1068 19.9184 39.2148 19.8802 39.3258 19.8824L42.1737 19.8831ZM44.7995 14.0616C44.6059 15.2783 43.6564 16.1741 41.8387 16.1741H39.5148L40.2192 11.7493H42.5014C44.3813 11.7526 44.9925 12.8508 44.7995 14.0649V14.0616Z" fill="#A0A0A0"/>
<path d="M21.8926 8.90188C21.9633 5.23314 18.9298 2.41864 14.7585 2.41864H6.13039C5.92932 2.41855 5.73483 2.49008 5.58195 2.62035C5.42907 2.75062 5.32785 2.93107 5.29652 3.12919L1.83946 24.6783C1.82399 24.7759 1.82992 24.8757 1.85684 24.9709C1.88377 25.066 1.93104 25.1542 1.99541 25.2294C2.05977 25.3046 2.13971 25.3649 2.2297 25.4063C2.3197 25.4477 2.41762 25.4692 2.51673 25.4692H7.62831L6.82946 30.4589C6.81399 30.5565 6.81992 30.6564 6.84685 30.7515C6.87377 30.8466 6.92104 30.9348 6.98541 31.01C7.04977 31.0852 7.12971 31.1455 7.21971 31.187C7.3097 31.2283 7.40763 31.2498 7.50673 31.2498H11.6708C11.8717 31.2498 12.0507 31.178 12.204 31.0481C12.356 30.9176 12.3811 30.7377 12.4128 30.5393L13.6352 23.3653C13.6663 23.1675 13.7674 22.9105 13.92 22.78C14.0726 22.6494 14.2061 22.5783 14.4076 22.5783H16.9555C21.0409 22.5783 24.5066 19.6814 25.1402 15.6527C25.5889 12.7934 24.3599 10.1918 21.8926 8.90188Z" fill="#A0A0A0"/>
<path d="M8.7344 17.522L7.46113 25.5753L6.66162 30.6269C6.64625 30.7246 6.65228 30.8244 6.67928 30.9195C6.70629 31.0146 6.75364 31.1028 6.81807 31.1779C6.8825 31.253 6.96248 31.3133 7.0525 31.3546C7.14253 31.3959 7.24046 31.4173 7.33955 31.4172H11.7468C11.9476 31.4171 12.1419 31.3455 12.2945 31.2152C12.4472 31.085 12.5481 30.9046 12.5793 30.7067L13.7409 23.3646C13.7722 23.1666 13.8734 22.9862 14.0261 22.8559C14.1788 22.7257 14.3732 22.6541 14.5741 22.654H17.1682C21.2537 22.654 24.7193 19.6813 25.3536 15.6527C25.803 12.7934 24.3599 10.1911 21.8926 8.90118C21.886 9.2057 21.8596 9.50956 21.8127 9.81079C21.179 13.8381 17.712 16.8115 13.6279 16.8115H9.56761C9.3666 16.8117 9.17226 16.8834 9.01953 17.0138C8.8668 17.1441 8.7657 17.3239 8.7344 17.522Z" fill="#A0A0A0"/>
<path d="M7.46003 25.5753H2.33259C2.2335 25.5753 2.1356 25.5538 2.04563 25.5124C1.95566 25.471 1.87576 25.4106 1.81144 25.3354C1.74712 25.2603 1.69991 25.172 1.67308 25.0769C1.64624 24.9818 1.6404 24.8819 1.65598 24.7843L5.11303 2.91556C5.14435 2.71756 5.24548 2.5372 5.39822 2.40694C5.55096 2.27668 5.74529 2.20508 5.94624 2.20502H14.758C18.9294 2.20502 21.9629 5.23308 21.8922 8.90116C20.8541 8.35804 19.6344 8.04758 18.2983 8.04758H10.9521C10.751 8.04749 10.5566 8.11902 10.4037 8.24929C10.2508 8.37956 10.1496 8.56001 10.1182 8.75813L8.73462 17.522L7.45937 25.5753H7.46003Z" fill="#A0A0A0"/>
</svg>
