<svg width="71" height="24" viewBox="0 0 71 24" fill="none" xmlns="http://www.w3.org/2000/svg">
<g clip-path="url(#clip0_266_1675)">
<path d="M46.181 0.57666C41.1548 0.57666 36.6421 3.19197 36.6421 7.99119C36.6421 13.5184 44.6137 13.8959 44.6137 16.646C44.6137 17.8053 43.2626 18.8568 40.9927 18.8568C37.75 18.8568 35.318 17.4009 35.318 17.4009L34.2912 22.2541C34.2912 22.2541 37.0745 23.4943 40.8036 23.4943C46.3161 23.4943 50.6396 20.7711 50.6396 15.8641C50.6396 10.0403 42.6411 9.66283 42.6411 7.10145C42.6411 6.18474 43.749 5.18715 46.0188 5.18715C48.586 5.18715 50.6937 6.23867 50.6937 6.23867L51.7205 1.54729C51.6935 1.54729 49.3966 0.57666 46.181 0.57666ZM0.135111 0.927165L0 1.62818C0 1.62818 2.10773 2.00564 4.02631 2.78754C6.48533 3.67728 6.64747 4.18956 7.07982 5.78031L11.5925 23.1168H17.6455L26.9141 0.927165H20.8882L14.9163 16.0258L12.4843 3.21893C12.2681 1.76298 11.1332 0.927165 9.728 0.927165H0.135111ZM29.3461 0.927165L24.6172 23.1168H30.373L35.0748 0.927165H29.3461ZM61.3945 0.927165C60.0164 0.927165 59.2868 1.65514 58.7463 2.94931L50.3154 23.1168H56.3413L57.5033 19.7466H64.8533L65.5559 23.1168H70.8793L66.2585 0.927165H61.3945ZM62.1781 6.93968L63.9616 15.2709H59.1787L62.1781 6.93968Z" fill="#A0A0A0"/>
</g>
<defs>
<clipPath id="clip0_266_1675">
<rect width="70.8793" height="22.9176" fill="white" transform="translate(0 0.57666)"/>
</clipPath>
</defs>
</svg>
